<svg version="1.1" class="cloud" xmlns="http://www.w3.org/2000/svg" xmlns:xlink="http://www.w3.org/1999/xlink" x="0px" y="0px" width="10px" height="10px" viewBox="0 0 10 10" enable-background="new 0 0 10 10" xml:space="preserve">
    <path fill="none" d="M8.528,5.624H8.247c-0.085,0-0.156-0.068-0.156-0.154c0-0.694-0.563-1.257-1.257-1.257c-0.098,0-0.197,0.013-0.3,0.038C6.493,4.259,6.45,4.252,6.415,4.229C6.38,4.208,6.356,4.172,6.348,4.131C6.117,3.032,5.135,2.235,4.01,2.235c-1.252,0-2.297,0.979-2.379,2.23c-0.004,0.056-0.039,0.108-0.093,0.13C1.076,4.793,0.776,5.249,0.776,5.752c0,0.693,0.564,1.257,1.257,1.257h6.495c0.383,0,0.695-0.31,0.695-0.692S8.911,5.624,8.528,5.624z"></path>
  </svg>